<svg width="24" height="25" viewBox="0 0 24 25" fill="none" xmlns="http://www.w3.org/2000/svg">
<g clip-path="url(#clip0_95_345)">
<path d="M7.33333 4.5H4.66667C4.29867 4.5 4 4.79867 4 5.16667V7.83333C4 8.20133 4.29867 8.5 4.66667 8.5H7.33333C7.70133 8.5 8 8.20133 8 7.83333V5.16667C8 4.79867 7.70133 4.5 7.33333 4.5Z" fill="#222225"/>
<path d="M7.33333 10.5H4.66667C4.29867 10.5 4 10.7987 4 11.1667V13.8333C4 14.2013 4.29867 14.5 4.66667 14.5H7.33333C7.70133 14.5 8 14.2013 8 13.8333V11.1667C8 10.7987 7.70133 10.5 7.33333 10.5Z" fill="#222225"/>
<path d="M7.33333 16.5H4.66667C4.29867 16.5 4 16.7987 4 17.1667V19.8333C4 20.2013 4.29867 20.5 4.66667 20.5H7.33333C7.70133 20.5 8 20.2013 8 19.8333V17.1667C8 16.7987 7.70133 16.5 7.33333 16.5Z" fill="#222225"/>
<path d="M13.3333 4.5H10.6667C10.2987 4.5 10 4.79867 10 5.16667V7.83333C10 8.20133 10.2987 8.5 10.6667 8.5H13.3333C13.7013 8.5 14 8.20133 14 7.83333V5.16667C14 4.79867 13.7013 4.5 13.3333 4.5Z" fill="#222225"/>
<path d="M13.3333 10.5H10.6667C10.2987 10.5 10 10.7987 10 11.1667V13.8333C10 14.2013 10.2987 14.5 10.6667 14.5H13.3333C13.7013 14.5 14 14.2013 14 13.8333V11.1667C14 10.7987 13.7013 10.5 13.3333 10.5Z" fill="#222225"/>
<path d="M13.3333 16.5H10.6667C10.2987 16.5 10 16.7987 10 17.1667V19.8333C10 20.2013 10.2987 20.5 10.6667 20.5H13.3333C13.7013 20.5 14 20.2013 14 19.8333V17.1667C14 16.7987 13.7013 16.5 13.3333 16.5Z" fill="#222225"/>
<path d="M19.3333 4.5H16.6667C16.2987 4.5 16 4.79867 16 5.16667V7.83333C16 8.20133 16.2987 8.5 16.6667 8.5H19.3333C19.7013 8.5 20 8.20133 20 7.83333V5.16667C20 4.79867 19.7013 4.5 19.3333 4.5Z" fill="#222225"/>
<path d="M19.3333 10.5H16.6667C16.2987 10.5 16 10.7987 16 11.1667V13.8333C16 14.2013 16.2987 14.5 16.6667 14.5H19.3333C19.7013 14.5 20 14.2013 20 13.8333V11.1667C20 10.7987 19.7013 10.5 19.3333 10.5Z" fill="#222225"/>
<path d="M19.3333 16.5H16.6667C16.2987 16.5 16 16.7987 16 17.1667V19.8333C16 20.2013 16.2987 20.5 16.6667 20.5H19.3333C19.7013 20.5 20 20.2013 20 19.8333V17.1667C20 16.7987 19.7013 16.5 19.3333 16.5Z" fill="#222225"/>
</g>
<defs>
<clipPath id="clip0_95_345">
<rect width="16" height="16" fill="white" transform="translate(4 4.5)"/>
</clipPath>
</defs>
</svg>
