<svg width="16" height="16" viewBox="0 0 16 16" fill="none" xmlns="http://www.w3.org/2000/svg">
<g clip-path="url(#clip0_16_7302)">
<path d="M15.4592 3.1515L10.6113 7.99992L15.4592 12.8481C16.1803 13.5695 16.1803 14.738 15.4592 15.4594C15.0989 15.8197 14.6265 16 14.1544 16C13.6814 16 13.209 15.82 12.849 15.4594L8.00004 10.6107L3.15143 15.4594C2.79118 15.8197 2.31876 16 1.8462 16C1.37378 16 0.901677 15.8199 0.541103 15.4594C-0.18 14.7383 -0.18 13.5697 0.541103 12.8481L5.38888 7.99987L0.540827 3.1515C-0.180276 2.43039 -0.180276 1.26158 0.540827 0.540475C1.26179 -0.180077 2.42992 -0.180077 3.15116 0.540475L7.99999 5.3889L12.8485 0.540475C13.5698 -0.180077 14.7381 -0.180077 15.4589 0.540475C16.1803 1.26158 16.1803 2.43039 15.4592 3.1515Z" fill="#CFD0D2" fill-opacity="0.25"/>
</g>
<defs>
<clipPath id="clip0_16_7302">
<rect width="16" height="16" fill="white"/>
</clipPath>
</defs>
</svg>
