<svg width="200" height="34" viewBox="0 0 200 34" fill="none" xmlns="http://www.w3.org/2000/svg">
<g clip-path="url(#clip0_1_297)">
<path d="M122.276 6.87972V8.14852L121.842 8.48438L122.434 8.94367V10.4048L121.613 11.1512H117.984V6.13336H121.455L122.276 6.87972ZM119.107 8.19158H121.142V6.96583H119.107V8.19158ZM119.107 10.3216H121.283V8.93793H119.107V10.3216Z" fill="white"/>
<path d="M123.869 10.379V6.90842L124.722 6.13336H127.543V7.05769H125.02V10.2268H127.624V11.1512H124.722L123.869 10.3761V10.379Z" fill="white"/>
<path d="M129.042 11.1512V6.13336H132.891V6.99454H130.162V8.17148H132.495V9.00396H130.162V10.2957H132.969V11.1569H129.042V11.1512Z" fill="white"/>
<path d="M122.529 19.7543H121.423V16.0972L119.161 19.7543H117.987V14.7365H119.092V18.3936L121.355 14.7365H122.529V19.7543Z" fill="white"/>
<path d="M124.139 19.7543V14.7365H125.258V16.7143H127.42V14.7365H128.539V19.7543H127.42V17.6329H125.258V19.7543H124.139Z" fill="white"/>
<path d="M129.854 20.759V18.8673H130.383L131.462 14.7365H134.812V18.8673H135.294V20.759H134.364V19.7543H130.785V20.759H129.854ZM131.511 18.9247H133.695V15.569H132.315L131.511 18.9247Z" fill="white"/>
<path d="M136.525 19.7543V18.8931H138.52L138.75 18.1755H137.386L136.275 14.7336H137.412L138.216 17.343H138.965L139.737 14.7336H140.865L139.312 19.7514H136.528L136.525 19.7543Z" fill="white"/>
<path d="M142.117 18.9792V15.5087L142.97 14.7336H145.792V15.658H143.268V18.8271H145.872V19.7514H142.97L142.117 18.9764V18.9792Z" fill="white"/>
<path d="M148.561 19.7543V15.6235H147.04V14.7336H151.202V15.6235H149.681V19.7543H148.561Z" fill="white"/>
<path d="M156.818 15.5116V17.9056L155.965 18.6807H153.677V19.7572H152.558V14.7394H155.965L156.818 15.5144V15.5116ZM153.68 17.8482H155.698V15.569H153.68V17.8482Z" fill="white"/>
<path d="M162.812 19.7543H161.707V16.0972L159.445 19.7543H158.271V14.7365H159.376V18.3936L161.638 14.7365H162.812V19.7543Z" fill="white"/>
<path d="M164.12 19.7543L165.406 14.7365H167.772L169.058 19.7543H167.883L167.608 18.6061H165.573L165.297 19.7543H164.123H164.12ZM165.736 17.8396H167.439L166.887 15.5604H166.287L165.736 17.8396Z" fill="white"/>
<path d="M174.845 14.7365V19.7543H173.725V15.6379H172.227L171.242 19.7543H170.068L171.323 14.7365H174.848H174.845Z" fill="white"/>
<path d="M180.838 16.5852V18.9792L179.986 19.7543H176.452V14.7365H177.572V15.813H179.986L180.838 16.588V16.5852ZM179.719 16.6426H177.575V18.9218H179.719V16.6426Z" fill="white"/>
<path d="M182.288 19.7543V14.7365H183.408V16.7143H185.569V14.7365H186.689V19.7543H185.569V17.6329H183.408V19.7543H182.288Z" fill="white"/>
<path d="M192.683 16.5852V18.9792L191.831 19.7543H188.297V14.7365H189.416V15.813H191.831L192.683 16.588V16.5852ZM191.564 16.6426H189.419V18.9218H191.564V16.6426ZM193.346 19.7543V14.7365H194.466V19.7543H193.346Z" fill="white"/>
<path d="M196.073 19.7543V14.7365H199.923V15.5977H197.193V16.7746H199.527V17.6071H197.193V18.8989H200V19.7601H196.073V19.7543Z" fill="white"/>
<path d="M122.244 24.1148V26.5089L121.392 27.2839H119.104V28.3604H117.984V23.3426H121.392L122.244 24.1176V24.1148ZM119.107 26.4514H121.125V24.1722H119.107V26.4514Z" fill="white"/>
<path d="M123.697 28.3575V23.3397H127.547V24.2009H124.817V25.3778H127.151V26.2103H124.817V27.5021H127.624V28.3633H123.697V28.3575Z" fill="white"/>
<path d="M132.955 23.3397V27.4676H134.611V23.3397H135.731V28.3575H129.06V23.3397H130.179V27.4676H131.835V23.3397H132.955Z" fill="white"/>
<path d="M137.338 28.3575V23.3397H141.187V24.2009H138.457V25.3778H140.791V26.2103H138.457V27.5021H141.265V28.3633H137.338V28.3575Z" fill="white"/>
<path d="M142.703 28.3575V23.3397H143.823V25.3176H145.984V23.3397H147.104V28.3575H145.984V26.2361H143.823V28.3575H142.703Z" fill="white"/>
<path d="M153.252 28.3575H152.147V24.7004L149.885 28.3575H148.711V23.3397H149.816V26.9969L152.078 23.3397H153.252V28.3575Z" fill="white"/>
<path d="M154.832 24.1148L155.684 23.3397H159.201V28.3575H158.081V26.839H156.479L155.713 28.3575H154.476L155.429 26.5864L154.829 26.0409V24.1119L154.832 24.1148ZM158.081 26.0065V24.1722H155.951V26.0065H158.081Z" fill="white"/>
<path d="M6.40148 13.7404H0.00292969V33.0107H6.40148V13.7404Z" fill="white"/>
<path d="M83.2413 32.9878L76.8428 33.0079V13.9328L83.2413 13.8926V32.9878Z" fill="white"/>
<path d="M31.6253 20.6614C31.8779 21.5284 32.0215 22.4527 32.0215 23.4029C32.0215 23.9253 31.9784 24.4391 31.9009 24.9386C31.8378 25.3118 31.7516 25.6792 31.654 26.0381C31.6196 26.1586 31.5823 26.2763 31.5421 26.3969C31.5076 26.5088 31.4703 26.615 31.4301 26.7299C31.3469 26.9624 31.2464 27.1949 31.1402 27.4274C31.0828 27.5394 31.034 27.6542 30.9794 27.7604C30.8675 27.9786 30.7469 28.191 30.6206 28.4006C30.3795 28.8024 30.1068 29.1842 29.8025 29.5488L29.7738 29.5775C29.7594 29.5976 29.7451 29.6206 29.725 29.6407C29.7106 29.6607 29.6905 29.6751 29.6762 29.6981C29.6274 29.7469 29.5786 29.8043 29.5269 29.8531C29.4494 29.9449 29.3662 30.0368 29.2801 30.12C29.1308 30.2693 28.9758 30.4157 28.8208 30.565C28.7863 30.5851 28.7576 30.6224 28.7232 30.6482C28.5481 30.7975 28.3701 30.9382 28.1864 31.0788C28.0457 31.185 27.8964 31.2912 27.75 31.3831C27.6438 31.4606 27.5376 31.5324 27.4257 31.5955C27.2764 31.6874 27.1156 31.7792 26.9606 31.8625C26.9032 31.8969 26.84 31.9256 26.7769 31.963C26.6219 32.0405 26.4611 32.118 26.3061 32.1869C26.0793 32.2873 25.8468 32.3763 25.6143 32.4624C25.3674 32.5543 25.1062 32.6318 24.8536 32.7007C24.6555 32.7495 24.4575 32.7983 24.2623 32.8356C24.0929 32.8701 23.9235 32.8988 23.7542 32.9189C23.7054 32.9246 23.6623 32.9332 23.6135 32.939C23.424 32.9591 23.2317 32.9734 23.0423 32.9878C22.8298 33.0021 22.626 33.0079 22.4136 33.0079H12.8V26.6007H22.4136C23.2949 26.6007 24.0986 26.2419 24.6756 25.662C24.7675 25.5702 24.8507 25.4783 24.9282 25.3807C25.0832 25.1769 25.2182 24.9587 25.3301 24.7233C25.3875 24.6028 25.4363 24.4851 25.4708 24.3559V24.3501C25.4995 24.2669 25.5196 24.175 25.5425 24.0832C25.5626 23.977 25.5856 23.865 25.6 23.7445C25.6086 23.6325 25.6143 23.5119 25.6143 23.4H25.62C25.62 23.0699 25.5712 22.7512 25.4708 22.4556C25.4363 22.335 25.3933 22.2173 25.3359 22.1025C25.1866 21.7494 24.9684 21.425 24.7015 21.1638C24.3627 20.8107 23.9465 20.5437 23.4815 20.383C23.424 20.3629 23.3695 20.3485 23.3121 20.3256C23.2288 20.3055 23.137 20.2825 23.0509 20.2624C22.959 20.2481 22.8758 20.2337 22.7839 20.2194C22.6777 20.205 22.5715 20.1993 22.4595 20.1993H12.9435V13.7921H22.4595C22.5715 13.7921 22.6777 13.7864 22.7839 13.772C22.8758 13.7577 22.959 13.7433 23.0509 13.729C23.1341 13.7089 23.226 13.6859 23.3121 13.6658C23.3695 13.6457 23.424 13.6314 23.4815 13.6084C23.9465 13.4448 24.3627 13.1778 24.7015 12.8247C24.9684 12.5635 25.1866 12.2391 25.3359 11.886C25.3933 11.7741 25.4335 11.6535 25.4708 11.5329C25.5684 11.2373 25.62 10.9186 25.62 10.5885C25.62 9.70151 25.2612 8.89774 24.6756 8.3265C24.0986 7.74951 23.2949 7.38781 22.4136 7.38781H0V0.989258H22.4136C23.2518 0.989258 24.0699 1.09547 24.8536 1.29928C25.1062 1.36818 25.3674 1.44855 25.6143 1.53754C25.8468 1.62079 26.0793 1.71265 26.3061 1.81312C26.5243 1.91072 26.7511 2.01693 26.9606 2.1375C27.595 2.47623 28.1864 2.88385 28.7232 3.34889C28.7576 3.37759 28.7863 3.41204 28.8208 3.43213C28.9758 3.5814 29.1308 3.7278 29.2801 3.87708C29.4351 4.03209 29.5843 4.19571 29.725 4.35646C29.7537 4.39091 29.7738 4.41962 29.8025 4.44832C30.1068 4.81576 30.3795 5.19468 30.6206 5.59656C30.7469 5.80898 30.8675 6.01854 30.9794 6.2367C31.0369 6.34292 31.0857 6.45487 31.1402 6.56682C31.2464 6.79934 31.344 7.03186 31.4301 7.26438C31.4732 7.37633 31.5076 7.48254 31.5421 7.59449C31.5851 7.71506 31.6196 7.83275 31.654 7.95332C31.7516 8.31214 31.8378 8.67958 31.9009 9.05276C31.9784 9.55224 32.0215 10.0661 32.0215 10.5885C32.0215 11.5416 31.8808 12.463 31.6253 13.3299C31.5823 13.4505 31.5478 13.5768 31.5048 13.6974H31.499C31.499 13.6974 31.4904 13.7175 31.4847 13.7318C31.4847 13.7519 31.4761 13.7663 31.4703 13.7892V13.795C31.3153 14.2399 31.1172 14.6705 30.8991 15.0839C30.8417 15.1901 30.7871 15.2963 30.724 15.4025C30.5489 15.7068 30.3565 16.0025 30.147 16.2838C30.0637 16.4043 29.9719 16.5163 29.88 16.6369C29.7824 16.7574 29.6819 16.8751 29.5757 16.9899V16.9957C29.6819 17.1076 29.7795 17.2282 29.88 17.3488C29.9719 17.4693 30.0637 17.5813 30.147 17.7019C30.3594 17.9832 30.5489 18.2788 30.724 18.5831C30.7871 18.6893 30.8445 18.7956 30.8991 18.9018C31.1172 19.318 31.3153 19.7486 31.4703 20.1907V20.1964C31.4761 20.2165 31.4847 20.2308 31.4847 20.2538C31.4904 20.2682 31.499 20.2739 31.499 20.2883H31.5048C31.5478 20.4088 31.5823 20.5351 31.6253 20.6557V20.6614Z" fill="white"/>
<path d="M108.87 10.5971C108.87 11.0765 108.835 11.5416 108.764 12.0009C108.701 12.4601 108.603 12.9108 108.468 13.3414C108.425 13.462 108.391 13.5883 108.347 13.7089C108.342 13.7376 108.333 13.772 108.319 13.8007L108.31 13.8065C108.267 13.9184 108.233 14.0246 108.184 14.1366C108.141 14.2428 108.101 14.3547 108.049 14.461C107.951 14.6791 107.845 14.8915 107.739 15.0954C107.682 15.2016 107.627 15.3078 107.564 15.414C107.481 15.569 107.38 15.7183 107.288 15.8647C107.191 16.0053 107.09 16.1546 106.984 16.2953C106.901 16.4158 106.809 16.5278 106.717 16.6483C106.619 16.7689 106.519 16.8866 106.413 17.0014V17.0072C105.348 18.1985 103.987 19.1228 102.451 19.6567C101.507 20.0012 100.485 20.1935 99.4199 20.205H89.7977L89.7862 13.7978H99.3022C99.3367 13.7978 99.3654 13.7978 99.3941 13.7892C99.4716 13.7892 99.5491 13.7835 99.6266 13.7749C99.7185 13.7605 99.8017 13.7462 99.8936 13.7318C99.9768 13.7117 100.069 13.6888 100.155 13.6687C100.212 13.6486 100.267 13.6342 100.324 13.6113C100.402 13.5826 100.479 13.5538 100.551 13.5194C100.62 13.4907 100.686 13.462 100.74 13.4275C100.775 13.4132 100.809 13.3931 100.847 13.3701C100.91 13.3357 100.973 13.2984 101.03 13.2582C101.128 13.195 101.214 13.1319 101.297 13.0601C101.381 12.9883 101.467 12.9108 101.544 12.8276C101.811 12.5664 102.029 12.242 102.179 11.8889C102.207 11.8401 102.227 11.7827 102.25 11.7281C102.25 11.7224 102.259 11.7138 102.265 11.6994C102.313 11.5731 102.348 11.4468 102.377 11.3119C102.391 11.2545 102.405 11.2057 102.411 11.1512C102.446 10.9674 102.46 10.7837 102.46 10.5943C102.46 10.3474 102.431 10.1005 102.377 9.868C102.362 9.7905 102.342 9.71299 102.313 9.63549C102.193 9.2336 101.989 8.86617 101.728 8.55614C101.665 8.47864 101.593 8.39539 101.515 8.32936C100.938 7.75238 100.135 7.39068 99.2534 7.39068H76.8398V0.989258H99.2534C99.4659 0.989258 99.6697 0.994999 99.8821 1.00935C100.086 1.0237 100.29 1.03806 100.496 1.06676C100.904 1.11556 101.306 1.20168 101.693 1.29928C101.955 1.36243 102.207 1.43994 102.454 1.5318C102.687 1.61505 102.919 1.70691 103.146 1.81312C103.364 1.91072 103.591 2.01693 103.8 2.1375C103.921 2.20065 104.039 2.2638 104.154 2.33557C104.386 2.47623 104.613 2.61688 104.831 2.7719C104.943 2.8494 105.049 2.93265 105.155 3.01016C105.296 3.11637 105.431 3.22832 105.563 3.34889C105.597 3.37759 105.626 3.41204 105.661 3.43213H105.666C105.985 3.72206 106.286 4.02347 106.562 4.35646C106.591 4.39091 106.611 4.41962 106.639 4.44832C106.944 4.81576 107.216 5.19468 107.458 5.59656C107.584 5.80898 107.704 6.01854 107.816 6.2367C107.874 6.34291 107.923 6.45487 107.98 6.56682C108.086 6.79934 108.184 7.03186 108.27 7.26438C108.29 7.30743 108.304 7.34762 108.319 7.39068C108.339 7.46245 108.368 7.5256 108.382 7.59449C108.425 7.71506 108.459 7.83275 108.494 7.95332C108.591 8.31214 108.678 8.67958 108.741 9.05275C108.784 9.29963 108.818 9.55224 108.833 9.81346C108.861 10.0661 108.867 10.3273 108.867 10.5885L108.87 10.5971Z" fill="white"/>
<path d="M70.4413 10.3215V33.005H64.0342V18.7726L70.4413 10.3215Z" fill="white"/>
<path d="M44.8185 0.989258V15.4398L38.4199 23.9741V0.989258H44.8185Z" fill="white"/>
<path d="M70.4414 0.989258L46.871 33.005H38.4199L61.9961 0.989258H70.4414Z" fill="white"/>
</g>
<defs>
<clipPath id="clip0_1_297">
<rect width="200" height="32.0215" fill="white" transform="translate(0 0.989258)"/>
</clipPath>
</defs>
</svg>
