<svg width="32.000000" height="37.000000" viewBox="0 0 32 37" fill="none" xmlns="http://www.w3.org/2000/svg" xmlns:xlink="http://www.w3.org/1999/xlink">
	<desc>
			Created with Pixso.
	</desc>
	<defs/>
	<path id="Vector" d="M7.87 -0.38C6.42 -0.38 5.25 0.79 5.25 2.25L5.25 18L2.62 18C1.17 18 0 19.17 0 20.62C0 22.07 1.17 23.25 2.62 23.25L5.25 23.25L5.25 25.87L2.62 25.87C1.17 25.87 0 27.04 0 28.5C0 29.95 1.17 31.12 2.62 31.12L5.25 31.12L5.25 33.75C5.25 35.2 6.42 36.37 7.87 36.37C9.32 36.37 10.5 35.2 10.5 33.75L10.5 31.12L23.62 31.12C25.07 31.12 26.25 29.95 26.25 28.5C26.25 27.04 25.07 25.87 23.62 25.87L10.5 25.87L10.5 23.25L19.68 23.25C26.2 23.25 31.5 17.95 31.5 11.43C31.5 4.91 26.2 -0.38 19.68 -0.38L7.87 -0.38ZM19.68 18L10.5 18L10.5 4.87L19.68 4.87C23.31 4.87 26.25 7.81 26.25 11.43C26.25 15.06 23.31 18 19.68 18Z" fill="#FFFFFF" fill-opacity="1.000000" fill-rule="nonzero"/>
</svg>
