<svg width="52.000000" height="42.000000" viewBox="0 0 52 42" fill="none" xmlns="http://www.w3.org/2000/svg" xmlns:xlink="http://www.w3.org/1999/xlink">
	<desc>
			Created with Pixso.
	</desc>
	<defs>
		<clipPath id="clip2002_2232">
			<rect id="gears-solid 1" width="52.500000" height="42.000000" transform="translate(-0.666992 0.000000)" fill="white" fill-opacity="0"/>
		</clipPath>
	</defs>
	<rect id="gears-solid 1" width="52.500000" height="42.000000" transform="translate(-0.666992 0.000000)" fill="#FFFFFF" fill-opacity="0"/>
	<g clip-path="url(#clip2002_2232)">
		<path id="Vector" d="M24.63 11.09C25.22 10.58 25.45 9.76 25.14 9.04C24.96 8.61 24.75 8.18 24.52 7.77L24.27 7.33C24.02 6.92 23.75 6.52 23.46 6.13C22.99 5.51 22.17 5.3 21.44 5.55L19.12 6.31C18.24 5.59 17.24 5 16.15 4.6L15.65 2.22C15.5 1.45 14.91 0.85 14.13 0.76C13.59 0.68 13.04 0.65 12.49 0.65L12.43 0.65C11.87 0.65 11.32 0.68 10.78 0.75C10.01 0.84 9.42 1.45 9.26 2.21L8.76 4.6C7.67 5.01 6.67 5.59 5.79 6.31L3.47 5.56C2.73 5.31 1.91 5.52 1.44 6.14C1.16 6.52 0.89 6.93 0.63 7.34L0.39 7.77C0.16 8.18 -0.05 8.61 -0.24 9.05C-0.54 9.76 -0.31 10.58 0.27 11.1L2.09 12.73C2 13.28 1.95 13.85 1.95 14.43C1.95 15.01 2 15.59 2.09 16.15L0.27 17.77C-0.31 18.29 -0.54 19.1 -0.24 19.82C-0.05 20.26 0.16 20.68 0.39 21.1L0.63 21.53C0.88 21.95 1.15 22.34 1.44 22.73C1.91 23.35 2.73 23.55 3.47 23.31L5.78 22.55C6.66 23.27 7.67 23.86 8.75 24.26L9.25 26.65C9.41 27.41 10 28.02 10.77 28.11C11.32 28.17 11.88 28.21 12.45 28.21C13.01 28.21 13.57 28.17 14.12 28.11C14.89 28.02 15.48 27.4 15.64 26.65L16.14 24.26C17.23 23.85 18.23 23.27 19.11 22.55L21.42 23.31C22.16 23.55 22.98 23.35 23.45 22.73C23.73 22.34 24 21.95 24.25 21.53L24.5 21.08C24.73 20.67 24.94 20.25 25.13 19.81C25.43 19.1 25.2 18.29 24.62 17.76L22.8 16.14C22.89 15.58 22.94 15.01 22.94 14.42C22.94 13.84 22.89 13.27 22.8 12.71L24.62 11.09L24.63 11.09ZM8.52 14.43C8.52 13.39 8.93 12.39 9.67 11.65C10.41 10.91 11.41 10.5 12.45 10.5C13.5 10.5 14.5 10.91 15.24 11.65C15.98 12.39 16.39 13.39 16.39 14.43C16.39 15.48 15.98 16.48 15.24 17.22C14.5 17.95 13.5 18.37 12.45 18.37C11.41 18.37 10.41 17.95 9.67 17.22C8.93 16.48 8.52 15.48 8.52 14.43ZM40.73 41.05C41.25 41.63 42.06 41.86 42.78 41.56C43.21 41.37 43.64 41.17 44.05 40.94L44.49 40.68C44.9 40.44 45.31 40.17 45.69 39.88C46.32 39.41 46.52 38.59 46.27 37.85L45.51 35.54C46.23 34.66 46.82 33.65 47.23 32.57L49.61 32.07C50.38 31.91 50.98 31.32 51.07 30.55C51.14 30 51.17 29.44 51.17 28.88C51.17 28.31 51.14 27.75 51.07 27.21C50.98 26.43 50.37 25.84 49.61 25.69L47.23 25.18C46.82 24.09 46.23 23.09 45.51 22.21L46.27 19.9C46.52 19.16 46.32 18.34 45.69 17.87C45.31 17.58 44.9 17.31 44.49 17.06L44.06 16.81C43.65 16.58 43.22 16.38 42.78 16.19C42.07 15.88 41.25 16.11 40.73 16.7L39.11 18.52C38.55 18.43 37.97 18.38 37.39 18.38C36.81 18.38 36.23 18.43 35.68 18.52L34.05 16.7C33.54 16.11 32.72 15.88 32 16.19C31.57 16.38 31.14 16.58 30.72 16.81L30.29 17.06C29.88 17.3 29.48 17.57 29.1 17.87C28.47 18.34 28.27 19.16 28.51 19.9L29.28 22.21C28.56 23.09 27.96 24.1 27.56 25.18L25.18 25.67C24.41 25.83 23.81 26.42 23.72 27.19C23.65 27.74 23.62 28.3 23.62 28.86C23.62 29.43 23.65 29.99 23.72 30.54C23.81 31.31 24.42 31.9 25.18 32.05L27.56 32.55C27.97 33.64 28.56 34.65 29.28 35.52L28.51 37.84C28.27 38.57 28.47 39.39 29.1 39.86C29.48 40.15 29.88 40.42 30.29 40.67L30.74 40.92C31.15 41.15 31.57 41.36 32.01 41.54C32.72 41.85 33.54 41.62 34.06 41.04L35.68 39.21C36.24 39.3 36.82 39.35 37.4 39.35C37.98 39.35 38.56 39.3 39.11 39.21L40.74 41.04L40.73 41.05ZM37.39 24.93C37.91 24.93 38.42 25.03 38.9 25.23C39.37 25.43 39.81 25.72 40.17 26.09C40.54 26.45 40.83 26.89 41.03 27.36C41.23 27.84 41.33 28.35 41.33 28.87C41.33 29.39 41.23 29.9 41.03 30.38C40.83 30.85 40.54 31.29 40.17 31.65C39.81 32.02 39.37 32.31 38.9 32.51C38.42 32.71 37.91 32.81 37.39 32.81C36.87 32.81 36.36 32.71 35.88 32.51C35.41 32.31 34.97 32.02 34.61 31.65C34.24 31.29 33.95 30.85 33.75 30.38C33.55 29.9 33.45 29.39 33.45 28.87C33.45 28.35 33.55 27.84 33.75 27.36C33.95 26.89 34.24 26.45 34.61 26.09C34.97 25.72 35.41 25.43 35.88 25.23C36.36 25.03 36.87 24.93 37.39 24.93Z" fill="#FFFFFF" fill-opacity="1.000000" fill-rule="nonzero"/>
	</g>
</svg>
