<svg width="42.000000" height="42.000000" viewBox="0 0 42 42" fill="none" xmlns="http://www.w3.org/2000/svg" xmlns:xlink="http://www.w3.org/1999/xlink">
	<desc>
			Created with Pixso.
	</desc>
	<defs>
		<clipPath id="clip2002_2226">
			<rect id="shield-halved-solid 1" width="42.000000" height="42.000000" transform="translate(-0.333008 0.000000)" fill="white" fill-opacity="0"/>
		</clipPath>
	</defs>
	<rect id="shield-halved-solid 1" width="42.000000" height="42.000000" transform="translate(-0.333008 0.000000)" fill="#FFFFFF" fill-opacity="0"/>
	<g clip-path="url(#clip2002_2226)">
		<path id="Vector" d="M20.66 0C21.04 0 21.42 0.08 21.76 0.23L37.21 6.79C39.01 7.55 40.36 9.33 40.35 11.48C40.31 19.62 36.96 34.51 22.83 41.27C21.46 41.93 19.87 41.93 18.5 41.27C4.36 34.51 1.02 19.62 0.97 11.48C0.97 9.33 2.31 7.55 4.12 6.79L19.57 0.23C19.91 0.08 20.29 0 20.66 0ZM20.66 5.47L20.66 36.48C31.98 31 35.03 18.87 35.1 11.59L20.66 5.47Z" fill="#FFFFFF" fill-opacity="1.000000" fill-rule="nonzero"/>
	</g>
</svg>
