<svg width="43.000000" height="43.000000" viewBox="0 0 43 43" fill="none" xmlns="http://www.w3.org/2000/svg" xmlns:xlink="http://www.w3.org/1999/xlink">
	<desc>
			Created with Pixso.
	</desc>
	<defs/>
	<path id="Vector" d="M20.99 0C21.75 0 22.45 0.42 22.79 1.1L28.5 12.69L41.27 14.55C42.02 14.65 42.65 15.17 42.88 15.88C43.11 16.6 42.92 17.37 42.39 17.89L33.13 26.93L35.31 39.7C35.44 40.44 35.13 41.18 34.5 41.63C33.88 42.07 33.06 42.12 32.4 41.77L20.98 35.76L9.58 41.76C8.9 42.11 8.09 42.06 7.47 41.62C6.85 41.17 6.54 40.43 6.66 39.69L8.85 26.93L-0.41 17.89C-0.95 17.37 -1.14 16.59 -0.9 15.88C-0.67 15.18 -0.05 14.66 0.7 14.55L13.47 12.69L19.19 1.1C19.53 0.42 20.22 0 20.99 0ZM20.99 6.48L16.61 15.35C16.32 15.93 15.76 16.34 15.1 16.44L5.25 17.87L12.4 24.85C12.86 25.3 13.08 25.94 12.97 26.57L11.28 36.39L20.05 31.78C20.64 31.47 21.35 31.47 21.93 31.78L30.7 36.39L29.01 26.58C28.9 25.95 29.11 25.31 29.58 24.86L36.74 17.88L26.88 16.44C26.23 16.34 25.66 15.94 25.37 15.35L20.99 6.48Z" fill="#FFFFFF" fill-opacity="1.000000" fill-rule="nonzero"/>
</svg>
