<svg width="27.000000" height="22.000000" viewBox="0 0 27 22" fill="none" xmlns="http://www.w3.org/2000/svg" xmlns:xlink="http://www.w3.org/1999/xlink">
	<path id="Telegram" d="M1.65 9.58C1.65 9.58 13.59 4.75 17.73 3.05C19.32 2.37 24.71 0.19 24.71 0.19C24.71 0.19 27.19 -0.76 26.98 1.55C26.91 2.5 26.36 5.83 25.81 9.44C24.98 14.54 24.08 20.12 24.08 20.12C24.08 20.12 23.95 21.68 22.77 21.96C21.6 22.23 19.67 21 19.32 20.73C19.04 20.53 14.14 17.47 12.35 15.97C11.87 15.56 11.31 14.75 12.42 13.79C14.9 11.55 17.87 8.76 19.67 6.99C20.49 6.17 21.32 4.27 17.87 6.58C12.97 9.92 8.14 13.04 8.14 13.04C8.14 13.04 7.03 13.73 4.96 13.11C2.89 12.5 0.48 11.68 0.48 11.68C0.48 11.68 -1.18 10.66 1.65 9.58Z" fill="#222225" fill-opacity="1.000000" fill-rule="nonzero"/>
</svg>
