<svg width="27.000000" height="26.000000" viewBox="0 0 27 26" fill="none" xmlns="http://www.w3.org/2000/svg" xmlns:xlink="http://www.w3.org/1999/xlink">
	<path id="Whatsapp" d="M13.4717 -0.970703C6.04297 -0.970703 0 5.07227 0 12.501C0 15.4463 0.950195 18.1787 2.56543 20.3965L0.886719 25.4014L6.06641 23.7471C8.19629 25.1562 10.7393 25.9717 13.4795 25.9717C20.9072 25.9717 26.9502 19.9287 26.9502 12.501C26.9502 5.07227 20.9072 -0.970703 13.4795 -0.970703L13.4717 -0.970703L13.4717 -0.970703ZM8.85547 5.20703C9.25098 5.22266 9.44922 5.24609 9.70996 5.87207C10.0352 6.65625 10.8271 8.58789 10.9219 8.78613C11.0166 8.98438 11.1123 9.25391 10.9775 9.51465C10.8506 9.78418 10.7393 9.90332 10.542 10.1328C10.3438 10.3623 10.1533 10.5361 9.95605 10.7822C9.95215 10.7861 9.94922 10.79 9.94629 10.793C9.7666 11.0039 9.57129 11.2324 9.79785 11.6221C10.0273 12.0098 10.8184 13.3008 11.9834 14.3379C13.4883 15.6758 14.707 16.1045 15.1436 16.2861C15.4678 16.4209 15.8555 16.3896 16.0938 16.1357C16.3945 15.8115 16.7666 15.2725 17.1465 14.7422C17.416 14.3613 17.7568 14.3145 18.1133 14.4482C18.4775 14.5752 20.4014 15.5254 20.7979 15.7236C21.1934 15.9219 21.4551 16.0166 21.5498 16.1836C21.6455 16.3496 21.6455 17.1338 21.3203 18.0527C20.9961 18.9707 19.7051 19.7314 18.6748 19.9531C17.9707 20.1035 17.0518 20.2227 13.9551 18.9395C9.99512 17.2998 7.44531 13.2764 7.24707 13.0156C7.05762 12.7539 5.64746 10.8848 5.64746 8.95215C5.64746 7.02051 6.62988 6.07812 7.02539 5.67383C7.35059 5.3418 7.88867 5.19141 8.40332 5.19141C8.55371 5.19141 8.70508 5.19727 8.85547 5.20703Z" clip-rule="evenodd" fill="#222225" fill-opacity="1.000000" fill-rule="evenodd"/>
</svg>
